<?xml version="1.0" standalone="no"?>
<!DOCTYPE svg PUBLIC "-//W3C//DTD SVG 20010904//EN"
 "http://www.w3.org/TR/2001/REC-SVG-20010904/DTD/svg10.dtd">
<svg version="1.0" xmlns="http://www.w3.org/2000/svg"
 width="1406.000000pt" height="263.000000pt" viewBox="0 0 1406.000000 263.000000"
 preserveAspectRatio="xMidYMid meet">

<g transform="translate(0.000000,263.000000) scale(0.100000,-0.100000)"
fill="#000000" stroke="none">
<path d="M3798 1327 l-346 -862 37 -11 c20 -6 51 -13 67 -17 l31 -6 138 340
138 339 284 -2 285 -3 138 -328 c76 -181 141 -331 144 -334 3 -3 35 2 70 11
60 17 64 20 56 39 -85 218 -683 1684 -688 1689 -4 4 -164 -380 -354 -855z
m397 393 c20 -58 68 -187 106 -288 38 -101 69 -185 69 -187 0 -3 -102 -5 -226
-5 -177 0 -225 3 -221 13 2 6 53 141 113 299 60 158 112 284 115 280 3 -4 23
-54 44 -112z"/>
<path d="M1195 2153 c-200 -28 -385 -146 -453 -289 -24 -53 -27 -70 -27 -169
0 -105 2 -114 33 -178 64 -129 187 -222 327 -246 33 -6 116 -15 185 -21 247
-21 340 -67 412 -203 34 -63 31 -174 -5 -242 -72 -137 -189 -200 -392 -212
-113 -6 -223 6 -375 42 -58 14 -115 27 -128 30 -19 5 -26 -2 -47 -47 -14 -29
-25 -58 -25 -64 0 -7 51 -26 113 -43 275 -76 473 -86 657 -34 143 40 279 145
332 255 128 262 -24 556 -327 633 -33 8 -129 22 -213 30 -217 22 -291 51 -352
140 -113 164 -60 329 134 421 178 85 394 81 682 -11 17 -5 24 2 47 56 15 35
24 66 20 70 -12 11 -168 56 -255 73 -72 15 -265 20 -343 9z"/>
<path d="M7320 1799 l-405 -360 -3 350 -2 351 -75 0 -75 0 0 -840 0 -841 73 3
72 3 5 390 c4 315 8 389 18 387 11 -2 303 -267 759 -690 l112 -103 56 42 c31
23 54 46 53 51 -2 5 -197 187 -433 404 -237 218 -431 400 -433 404 -2 4 173
164 388 356 214 192 390 353 390 359 0 10 -81 95 -90 95 -3 0 -187 -162 -410
-361z"/>
<path d="M10565 2150 c-336 -52 -612 -297 -707 -627 -19 -65 -23 -103 -23
-223 1 -170 13 -223 85 -375 107 -223 312 -391 555 -456 114 -30 308 -30 420
0 400 107 667 475 642 884 -8 130 -26 198 -87 322 -138 285 -415 466 -730 480
-52 2 -122 0 -155 -5z m285 -155 c249 -59 459 -268 526 -525 23 -86 23 -253 0
-340 -62 -241 -242 -433 -481 -512 -60 -20 -90 -23 -210 -23 -120 0 -150 3
-210 23 -195 65 -345 196 -431 377 -50 105 -67 184 -67 305 0 165 46 304 148
438 88 116 249 222 390 256 80 19 254 20 335 1z"/>
<path d="M11911 2116 l-44 -45 74 -87 c41 -48 187 -220 326 -383 l252 -295
-42 -50 c-23 -27 -169 -201 -325 -385 l-282 -335 47 -48 c26 -26 50 -48 53
-48 3 0 148 169 321 375 172 206 316 375 319 374 3 0 142 -165 310 -366 168
-201 311 -367 317 -370 10 -4 58 26 107 68 4 4 -131 172 -300 374 -170 202
-317 377 -326 390 -18 22 -16 25 308 406 l326 383 -33 29 c-73 62 -75 63 -107
25 -16 -18 -156 -184 -312 -368 -155 -184 -286 -335 -291 -335 -5 0 -149 164
-320 365 -171 201 -316 366 -322 368 -7 1 -32 -18 -56 -42z"/>
<path d="M2300 1300 l0 -840 70 0 70 0 0 325 0 325 204 0 c236 0 291 11 396
82 140 93 223 255 223 433 -1 202 -111 380 -288 465 -94 45 -132 49 -412 50
l-263 0 0 -840z m605 666 c76 -38 143 -105 181 -181 26 -54 29 -70 29 -160 0
-87 -3 -107 -27 -157 -35 -76 -95 -138 -170 -179 l-63 -34 -207 -3 -208 -4 0
377 0 377 203 -4 c200 -3 203 -3 262 -32z"/>
<path d="M5200 1300 l0 -841 73 3 72 3 3 318 2 317 194 0 194 0 247 -320 246
-320 91 0 90 0 -28 38 c-15 20 -133 173 -261 340 -128 166 -233 304 -233 306
0 2 26 19 58 39 240 148 318 461 174 706 -38 65 -130 152 -198 188 -112 59
-140 63 -446 63 l-278 0 0 -840z m632 663 c81 -38 142 -98 183 -179 27 -54 30
-68 30 -159 0 -87 -3 -107 -27 -157 -35 -76 -95 -138 -170 -179 l-63 -34 -217
-3 -218 -3 0 376 0 377 208 -4 207 -3 67 -32z"/>
<path d="M8310 1300 l0 -840 350 0 c218 0 369 4 402 11 83 18 154 56 224 121
154 144 192 364 97 558 -26 53 -117 156 -158 178 -19 10 -17 13 26 59 83 86
118 159 132 268 23 171 -85 360 -252 443 l-75 37 -373 3 -373 3 0 -841z m763
671 c62 -31 131 -109 152 -172 51 -151 -39 -334 -185 -378 -24 -7 -137 -11
-314 -11 l-276 0 0 296 0 295 288 -3 c278 -3 288 -4 335 -27z m34 -743 c112
-59 173 -154 181 -278 6 -105 -22 -175 -97 -251 -87 -87 -100 -89 -448 -89
l-293 0 0 326 0 325 303 -3 302 -3 52 -27z"/>
</g>
</svg>
